<svg xmlns="http://www.w3.org/2000/svg" xmlns:xlink="http://www.w3.org/1999/xlink" width="500" zoomAndPan="magnify" viewBox="0 0 375 374.999991" height="500" preserveAspectRatio="xMidYMid meet" version="1.0"><defs><g/><clipPath id="6caec9806a"><path d="M 100 74.742188 L 193 74.742188 L 193 167 L 100 167 Z M 100 74.742188 " clip-rule="nonzero"/></clipPath><clipPath id="e140ba13a2"><path d="M 90 80 L 284.828125 80 L 284.828125 250.242188 L 90 250.242188 Z M 90 80 " clip-rule="nonzero"/></clipPath></defs><g clip-path="url(#6caec9806a)"><path fill="#fa5810" d="M 192.664062 120.667969 C 192.664062 146.011719 172.121094 166.554688 146.777344 166.554688 C 121.433594 166.554688 100.890625 146.011719 100.890625 120.667969 C 100.890625 95.324219 121.433594 74.78125 146.777344 74.78125 C 172.121094 74.78125 192.664062 95.324219 192.664062 120.667969 Z M 192.664062 120.667969 " fill-opacity="1" fill-rule="nonzero"/></g><g clip-path="url(#e140ba13a2)"><path fill="#402909" d="M 283.9375 247.539062 C 279.710938 244.527344 275.289062 241.683594 270.777344 239.074219 L 270.777344 162.941406 C 270.777344 162.039062 270.046875 161.308594 269.148438 161.308594 L 233.019531 161.308594 C 232.792969 161.308594 232.578125 161.355469 232.382812 161.4375 C 232.167969 161.476562 231.957031 161.558594 231.765625 161.6875 L 220.671875 169.140625 L 220.671875 114.019531 C 220.671875 113.117188 219.941406 112.386719 219.039062 112.386719 L 182.910156 112.386719 C 182.5625 112.386719 182.242188 112.5 181.976562 112.6875 C 181.910156 112.71875 181.847656 112.746094 181.789062 112.785156 L 155.867188 129.898438 C 155.410156 130.203125 155.136719 130.714844 155.136719 131.261719 L 155.136719 142.5625 L 132.496094 142.5625 C 132.386719 142.5625 132.277344 142.574219 132.171875 142.597656 C 132.125 142.605469 132.078125 142.625 132.03125 142.636719 C 131.976562 142.65625 131.921875 142.667969 131.867188 142.691406 C 131.769531 142.730469 131.675781 142.78125 131.589844 142.839844 C 131.585938 142.839844 131.585938 142.839844 131.582031 142.84375 C 131.582031 142.84375 131.582031 142.84375 131.578125 142.84375 L 105.664062 160.28125 C 105.210938 160.582031 104.941406 161.089844 104.941406 161.632812 L 104.941406 238.492188 C 100.015625 241.28125 95.230469 244.320312 90.714844 247.539062 C 89.980469 248.0625 89.808594 249.082031 90.332031 249.816406 C 90.652344 250.261719 91.152344 250.5 91.664062 250.5 C 91.988281 250.5 92.320312 250.402344 92.609375 250.195312 C 97.347656 246.816406 102.175781 243.765625 107.367188 240.863281 C 115.542969 236.296875 124.179688 232.390625 133.035156 229.253906 C 144.648438 225.144531 156.683594 222.351562 168.808594 220.953125 C 173.5 220.414062 178.257812 220.078125 182.953125 219.953125 C 184.425781 219.910156 185.898438 219.890625 187.328125 219.890625 C 197.683594 219.890625 208.246094 220.9375 218.722656 223.003906 C 218.722656 223.003906 218.726562 223.003906 218.726562 223.003906 C 223.355469 223.917969 228.011719 225.046875 232.566406 226.355469 C 245.09375 229.957031 257.128906 235.03125 268.339844 241.429688 C 273.039062 244.117188 277.652344 247.066406 282.042969 250.195312 C 282.332031 250.402344 282.664062 250.5 282.992188 250.5 C 283.5 250.5 284 250.261719 284.320312 249.816406 C 284.84375 249.082031 284.671875 248.0625 283.9375 247.539062 Z M 267.515625 164.570312 L 267.515625 237.234375 C 257.136719 231.542969 246.097656 226.953125 234.648438 223.570312 L 234.648438 164.570312 Z M 231.386719 165.871094 L 231.386719 222.644531 C 227.84375 221.675781 224.253906 220.816406 220.671875 220.078125 L 220.671875 173.070312 Z M 181.28125 117.027344 L 181.28125 216.75 C 177.609375 216.886719 173.917969 217.144531 170.253906 217.527344 L 170.253906 144.195312 C 170.253906 143.292969 169.523438 142.5625 168.621094 142.5625 L 158.398438 142.5625 L 158.398438 132.136719 Z M 134.125 145.824219 L 166.992188 145.824219 L 166.992188 217.890625 C 155.867188 219.273438 144.828125 221.800781 134.125 225.429688 Z M 130.863281 147.257812 L 130.863281 226.578125 C 123.082031 229.394531 115.476562 232.789062 108.203125 236.695312 L 108.203125 162.5 Z M 184.542969 216.65625 L 184.542969 115.648438 L 217.410156 115.648438 L 217.410156 219.433594 C 207.363281 217.570312 197.253906 216.628906 187.328125 216.628906 C 186.410156 216.628906 185.480469 216.640625 184.542969 216.65625 Z M 137.050781 90.613281 C 136.597656 89.832031 136.867188 88.835938 137.644531 88.386719 C 138.425781 87.933594 139.421875 88.203125 139.875 88.980469 L 146.980469 101.277344 C 147.429688 102.058594 147.164062 103.054688 146.382812 103.507812 C 146.125 103.65625 145.84375 103.726562 145.570312 103.726562 C 145.003906 103.726562 144.457031 103.433594 144.15625 102.910156 Z M 175.722656 82.726562 C 175.609375 81.832031 176.242188 81.015625 177.136719 80.902344 C 178.03125 80.789062 178.84375 81.421875 178.957031 82.316406 L 180.363281 93.453125 C 180.476562 94.347656 179.84375 95.164062 178.949219 95.277344 C 178.882812 95.285156 178.8125 95.289062 178.746094 95.289062 C 177.933594 95.289062 177.234375 94.6875 177.128906 93.863281 Z M 198.582031 90.71875 C 198.582031 89.816406 199.3125 89.085938 200.210938 89.085938 L 229.675781 89.085938 C 240.25 89.085938 248.949219 97.253906 249.8125 107.613281 C 252.976562 107.59375 259.675781 108.28125 264.21875 113.910156 C 267.230469 117.636719 267.886719 121.78125 267.953125 124.40625 L 272.902344 124.40625 C 279.664062 124.40625 285.164062 129.90625 285.164062 136.667969 C 285.164062 143.429688 279.664062 148.929688 272.902344 148.929688 L 233.664062 148.929688 C 232.765625 148.929688 232.035156 148.199219 232.035156 147.296875 C 232.035156 146.398438 232.765625 145.667969 233.664062 145.667969 L 272.902344 145.667969 C 277.867188 145.667969 281.902344 141.628906 281.902344 136.667969 C 281.902344 131.707031 277.867188 127.667969 272.902344 127.667969 L 266.289062 127.667969 C 266.289062 127.667969 266.289062 127.667969 266.285156 127.667969 C 266.246094 127.667969 266.207031 127.667969 266.164062 127.664062 C 266.128906 127.660156 266.097656 127.652344 266.0625 127.644531 C 266.007812 127.636719 265.953125 127.628906 265.898438 127.617188 C 265.847656 127.605469 265.796875 127.585938 265.746094 127.570312 C 265.695312 127.550781 265.648438 127.53125 265.597656 127.511719 C 265.550781 127.488281 265.503906 127.460938 265.460938 127.433594 C 265.414062 127.410156 265.371094 127.382812 265.328125 127.351562 C 265.285156 127.320312 265.246094 127.285156 265.207031 127.25 C 265.167969 127.214844 265.128906 127.179688 265.09375 127.144531 C 265.058594 127.105469 265.027344 127.066406 264.996094 127.023438 C 264.964844 126.980469 264.933594 126.9375 264.90625 126.894531 C 264.878906 126.851562 264.855469 126.804688 264.832031 126.757812 C 264.808594 126.710938 264.785156 126.664062 264.765625 126.613281 C 264.75 126.5625 264.734375 126.511719 264.71875 126.460938 C 264.707031 126.410156 264.691406 126.359375 264.683594 126.304688 C 264.675781 126.25 264.671875 126.195312 264.667969 126.140625 C 264.664062 126.105469 264.65625 126.074219 264.65625 126.039062 C 264.65625 126.015625 264.664062 125.996094 264.664062 125.976562 C 264.664062 125.953125 264.660156 125.933594 264.660156 125.914062 C 264.792969 124.191406 264.765625 119.777344 261.683594 115.960938 C 256.816406 109.933594 248.804688 110.898438 248.46875 110.945312 C 247.945312 111.011719 247.457031 110.824219 247.109375 110.480469 C 247.109375 110.476562 247.105469 110.472656 247.101562 110.46875 C 247.039062 110.410156 246.988281 110.34375 246.9375 110.273438 C 246.921875 110.25 246.90625 110.230469 246.890625 110.210938 C 246.855469 110.152344 246.824219 110.09375 246.792969 110.035156 C 246.777344 109.996094 246.757812 109.957031 246.742188 109.914062 C 246.71875 109.863281 246.707031 109.808594 246.691406 109.753906 C 246.675781 109.703125 246.664062 109.648438 246.652344 109.59375 C 246.648438 109.574219 246.640625 109.558594 246.640625 109.539062 C 246.636719 109.5 246.640625 109.464844 246.636719 109.429688 C 246.632812 109.394531 246.625 109.363281 246.625 109.328125 L 246.625 109.300781 C 246.625 99.953125 239.023438 92.347656 229.675781 92.347656 L 200.210938 92.347656 C 199.3125 92.347656 198.582031 91.617188 198.582031 90.71875 Z M 115.644531 119.375 C 116.195312 118.664062 117.222656 118.535156 117.933594 119.085938 L 126.800781 125.96875 C 127.515625 126.519531 127.644531 127.542969 127.089844 128.257812 C 126.769531 128.671875 126.289062 128.886719 125.800781 128.886719 C 125.453125 128.886719 125.101562 128.777344 124.804688 128.546875 L 115.933594 121.664062 C 115.222656 121.113281 115.09375 120.089844 115.644531 119.375 Z M 115.644531 119.375 " fill-opacity="1" fill-rule="nonzero"/></g><g fill="#402909" fill-opacity="1"><g transform="translate(71.237584, 268.965129)"><g><path d="M 9.90625 0.890625 C 9.644531 1.210938 9.320312 1.460938 8.9375 1.640625 C 8.550781 1.816406 8.132812 1.90625 7.6875 1.90625 C 7.070312 1.90625 6.515625 1.769531 6.015625 1.5 C 5.515625 1.238281 4.945312 0.773438 4.3125 0.109375 C 3.570312 0.015625 2.90625 -0.222656 2.3125 -0.609375 C 1.726562 -0.992188 1.269531 -1.488281 0.9375 -2.09375 C 0.613281 -2.707031 0.453125 -3.382812 0.453125 -4.125 C 0.453125 -4.9375 0.644531 -5.664062 1.03125 -6.3125 C 1.425781 -6.96875 1.96875 -7.476562 2.65625 -7.84375 C 3.34375 -8.21875 4.117188 -8.40625 4.984375 -8.40625 C 5.835938 -8.40625 6.601562 -8.21875 7.28125 -7.84375 C 7.96875 -7.476562 8.507812 -6.96875 8.90625 -6.3125 C 9.300781 -5.664062 9.5 -4.9375 9.5 -4.125 C 9.5 -3.164062 9.226562 -2.320312 8.6875 -1.59375 C 8.144531 -0.875 7.429688 -0.375 6.546875 -0.09375 C 6.742188 0.113281 6.929688 0.257812 7.109375 0.34375 C 7.296875 0.4375 7.5 0.484375 7.71875 0.484375 C 8.226562 0.484375 8.675781 0.28125 9.0625 -0.125 Z M 2.390625 -4.125 C 2.390625 -3.613281 2.5 -3.15625 2.71875 -2.75 C 2.945312 -2.351562 3.257812 -2.039062 3.65625 -1.8125 C 4.050781 -1.59375 4.492188 -1.484375 4.984375 -1.484375 C 5.460938 -1.484375 5.898438 -1.59375 6.296875 -1.8125 C 6.691406 -2.039062 7 -2.351562 7.21875 -2.75 C 7.445312 -3.15625 7.5625 -3.613281 7.5625 -4.125 C 7.5625 -4.632812 7.445312 -5.085938 7.21875 -5.484375 C 7 -5.890625 6.691406 -6.203125 6.296875 -6.421875 C 5.898438 -6.648438 5.460938 -6.765625 4.984375 -6.765625 C 4.492188 -6.765625 4.050781 -6.648438 3.65625 -6.421875 C 3.257812 -6.203125 2.945312 -5.890625 2.71875 -5.484375 C 2.5 -5.085938 2.390625 -4.632812 2.390625 -4.125 Z M 2.390625 -4.125 "/></g></g></g><g fill="#402909" fill-opacity="1"><g transform="translate(88.325873, 268.965129)"><g><path d="M 6.421875 -1.765625 L 2.578125 -1.765625 L 1.859375 0 L -0.109375 0 L 3.578125 -8.265625 L 5.46875 -8.265625 L 9.15625 0 L 7.15625 0 Z M 5.8125 -3.21875 L 4.5 -6.375 L 3.203125 -3.21875 Z M 5.8125 -3.21875 "/></g></g></g><g fill="#402909" fill-opacity="1"><g transform="translate(104.494617, 268.965129)"><g><path d="M 0.984375 -8.265625 L 4.734375 -8.265625 C 5.628906 -8.265625 6.421875 -8.09375 7.109375 -7.75 C 7.796875 -7.40625 8.328125 -6.921875 8.703125 -6.296875 C 9.085938 -5.679688 9.28125 -4.957031 9.28125 -4.125 C 9.28125 -3.300781 9.085938 -2.578125 8.703125 -1.953125 C 8.328125 -1.335938 7.796875 -0.859375 7.109375 -0.515625 C 6.421875 -0.171875 5.628906 0 4.734375 0 L 0.984375 0 Z M 4.640625 -1.5625 C 5.460938 -1.5625 6.117188 -1.789062 6.609375 -2.25 C 7.097656 -2.71875 7.34375 -3.34375 7.34375 -4.125 C 7.34375 -4.914062 7.097656 -5.539062 6.609375 -6 C 6.117188 -6.457031 5.460938 -6.6875 4.640625 -6.6875 L 2.890625 -6.6875 L 2.890625 -1.5625 Z M 4.640625 -1.5625 "/></g></g></g><g fill="#402909" fill-opacity="1"><g transform="translate(121.370697, 268.965129)"><g><path d="M 0.984375 -8.265625 L 2.890625 -8.265625 L 2.890625 0 L 0.984375 0 Z M 0.984375 -8.265625 "/></g></g></g><g fill="#402909" fill-opacity="1"><g transform="translate(132.375845, 268.965129)"><g><path d="M 8.5 0 L 8.484375 -4.953125 L 6.046875 -0.875 L 5.1875 -0.875 L 2.765625 -4.84375 L 2.765625 0 L 0.984375 0 L 0.984375 -8.265625 L 2.5625 -8.265625 L 5.65625 -3.125 L 8.6875 -8.265625 L 10.265625 -8.265625 L 10.28125 0 Z M 8.5 0 "/></g></g></g><g fill="#402909" fill-opacity="1"><g transform="translate(150.772707, 268.965129)"><g><path d="M 0.984375 -8.265625 L 2.890625 -8.265625 L 2.890625 0 L 0.984375 0 Z M 0.984375 -8.265625 "/></g></g></g><g fill="#402909" fill-opacity="1"><g transform="translate(161.777855, 268.965129)"><g><path d="M 4.9375 -2.921875 L 4.9375 0 L 3.03125 0 L 3.03125 -2.953125 L -0.171875 -8.265625 L 1.859375 -8.265625 L 4.0625 -4.59375 L 6.28125 -8.265625 L 8.15625 -8.265625 Z M 4.9375 -2.921875 "/></g></g></g><g fill="#402909" fill-opacity="1"><g transform="translate(176.885588, 268.965129)"><g/></g></g><g fill="#402909" fill-opacity="1"><g transform="translate(187.360227, 268.965129)"><g><path d="M 4.984375 0.140625 C 4.117188 0.140625 3.34375 -0.0390625 2.65625 -0.40625 C 1.96875 -0.78125 1.425781 -1.289062 1.03125 -1.9375 C 0.644531 -2.582031 0.453125 -3.3125 0.453125 -4.125 C 0.453125 -4.9375 0.644531 -5.664062 1.03125 -6.3125 C 1.425781 -6.96875 1.96875 -7.476562 2.65625 -7.84375 C 3.34375 -8.21875 4.117188 -8.40625 4.984375 -8.40625 C 5.835938 -8.40625 6.601562 -8.21875 7.28125 -7.84375 C 7.96875 -7.476562 8.507812 -6.96875 8.90625 -6.3125 C 9.300781 -5.664062 9.5 -4.9375 9.5 -4.125 C 9.5 -3.3125 9.300781 -2.582031 8.90625 -1.9375 C 8.507812 -1.289062 7.96875 -0.78125 7.28125 -0.40625 C 6.601562 -0.0390625 5.835938 0.140625 4.984375 0.140625 Z M 4.984375 -1.484375 C 5.460938 -1.484375 5.898438 -1.59375 6.296875 -1.8125 C 6.691406 -2.039062 7 -2.351562 7.21875 -2.75 C 7.445312 -3.15625 7.5625 -3.613281 7.5625 -4.125 C 7.5625 -4.632812 7.445312 -5.085938 7.21875 -5.484375 C 7 -5.890625 6.691406 -6.203125 6.296875 -6.421875 C 5.898438 -6.648438 5.460938 -6.765625 4.984375 -6.765625 C 4.492188 -6.765625 4.050781 -6.648438 3.65625 -6.421875 C 3.257812 -6.203125 2.945312 -5.890625 2.71875 -5.484375 C 2.5 -5.085938 2.390625 -4.632812 2.390625 -4.125 C 2.390625 -3.613281 2.5 -3.15625 2.71875 -2.75 C 2.945312 -2.351562 3.257812 -2.039062 3.65625 -1.8125 C 4.050781 -1.59375 4.492188 -1.484375 4.984375 -1.484375 Z M 4.984375 -1.484375 "/></g></g></g><g fill="#402909" fill-opacity="1"><g transform="translate(204.448521, 268.965129)"><g><path d="M 7.046875 -4.296875 C 7.515625 -4.140625 7.878906 -3.882812 8.140625 -3.53125 C 8.410156 -3.1875 8.546875 -2.757812 8.546875 -2.25 C 8.546875 -1.53125 8.265625 -0.972656 7.703125 -0.578125 C 7.140625 -0.191406 6.320312 0 5.25 0 L 0.984375 0 L 0.984375 -8.265625 L 5.015625 -8.265625 C 6.023438 -8.265625 6.796875 -8.070312 7.328125 -7.6875 C 7.867188 -7.300781 8.140625 -6.773438 8.140625 -6.109375 C 8.140625 -5.710938 8.039062 -5.351562 7.84375 -5.03125 C 7.65625 -4.71875 7.390625 -4.472656 7.046875 -4.296875 Z M 2.875 -6.8125 L 2.875 -4.875 L 4.78125 -4.875 C 5.25 -4.875 5.601562 -4.957031 5.84375 -5.125 C 6.09375 -5.289062 6.21875 -5.53125 6.21875 -5.84375 C 6.21875 -6.164062 6.09375 -6.40625 5.84375 -6.5625 C 5.601562 -6.726562 5.25 -6.8125 4.78125 -6.8125 Z M 5.109375 -1.4375 C 5.609375 -1.4375 5.984375 -1.519531 6.234375 -1.6875 C 6.492188 -1.851562 6.625 -2.109375 6.625 -2.453125 C 6.625 -3.140625 6.117188 -3.484375 5.109375 -3.484375 L 2.875 -3.484375 L 2.875 -1.4375 Z M 5.109375 -1.4375 "/></g></g></g><g fill="#402909" fill-opacity="1"><g transform="translate(220.605472, 268.965129)"><g><path d="M 0.984375 -8.265625 L 2.890625 -8.265625 L 2.890625 0 L 0.984375 0 Z M 0.984375 -8.265625 "/></g></g></g><g fill="#402909" fill-opacity="1"><g transform="translate(231.610614, 268.965129)"><g><path d="M 0.984375 -8.265625 L 4.734375 -8.265625 C 5.628906 -8.265625 6.421875 -8.09375 7.109375 -7.75 C 7.796875 -7.40625 8.328125 -6.921875 8.703125 -6.296875 C 9.085938 -5.679688 9.28125 -4.957031 9.28125 -4.125 C 9.28125 -3.300781 9.085938 -2.578125 8.703125 -1.953125 C 8.328125 -1.335938 7.796875 -0.859375 7.109375 -0.515625 C 6.421875 -0.171875 5.628906 0 4.734375 0 L 0.984375 0 Z M 4.640625 -1.5625 C 5.460938 -1.5625 6.117188 -1.789062 6.609375 -2.25 C 7.097656 -2.71875 7.34375 -3.34375 7.34375 -4.125 C 7.34375 -4.914062 7.097656 -5.539062 6.609375 -6 C 6.117188 -6.457031 5.460938 -6.6875 4.640625 -6.6875 L 2.890625 -6.6875 L 2.890625 -1.5625 Z M 4.640625 -1.5625 "/></g></g></g><g fill="#402909" fill-opacity="1"><g transform="translate(248.486688, 268.965129)"><g><path d="M 6.421875 -1.765625 L 2.578125 -1.765625 L 1.859375 0 L -0.109375 0 L 3.578125 -8.265625 L 5.46875 -8.265625 L 9.15625 0 L 7.15625 0 Z M 5.8125 -3.21875 L 4.5 -6.375 L 3.203125 -3.21875 Z M 5.8125 -3.21875 "/></g></g></g><g fill="#402909" fill-opacity="1"><g transform="translate(264.655426, 268.965129)"><g><path d="M 0.984375 -8.265625 L 2.890625 -8.265625 L 2.890625 -1.5625 L 7.03125 -1.5625 L 7.03125 0 L 0.984375 0 Z M 0.984375 -8.265625 "/></g></g></g><g fill="#402909" fill-opacity="1"><g transform="translate(278.914352, 268.965129)"><g><path d="M 6.421875 -1.765625 L 2.578125 -1.765625 L 1.859375 0 L -0.109375 0 L 3.578125 -8.265625 L 5.46875 -8.265625 L 9.15625 0 L 7.15625 0 Z M 5.8125 -3.21875 L 4.5 -6.375 L 3.203125 -3.21875 Z M 5.8125 -3.21875 "/></g></g></g><g fill="#402909" fill-opacity="1"><g transform="translate(295.08309, 268.965129)"><g><path d="M 6.234375 0 L 4.640625 -2.296875 L 2.890625 -2.296875 L 2.890625 0 L 0.984375 0 L 0.984375 -8.265625 L 4.546875 -8.265625 C 5.285156 -8.265625 5.921875 -8.140625 6.453125 -7.890625 C 6.992188 -7.648438 7.410156 -7.304688 7.703125 -6.859375 C 7.992188 -6.410156 8.140625 -5.878906 8.140625 -5.265625 C 8.140625 -4.648438 7.988281 -4.117188 7.6875 -3.671875 C 7.394531 -3.234375 6.976562 -2.894531 6.4375 -2.65625 L 8.296875 0 Z M 6.203125 -5.265625 C 6.203125 -5.722656 6.050781 -6.078125 5.75 -6.328125 C 5.457031 -6.578125 5.023438 -6.703125 4.453125 -6.703125 L 2.890625 -6.703125 L 2.890625 -3.828125 L 4.453125 -3.828125 C 5.023438 -3.828125 5.457031 -3.953125 5.75 -4.203125 C 6.050781 -4.453125 6.203125 -4.804688 6.203125 -5.265625 Z M 6.203125 -5.265625 "/></g></g></g><g fill="#402909" fill-opacity="1"><g transform="translate(156.116485, 285.465128)"><g><path d="M 2.6875 -6.703125 L 0.046875 -6.703125 L 0.046875 -8.265625 L 7.25 -8.265625 L 7.25 -6.703125 L 4.59375 -6.703125 L 4.59375 0 L 2.6875 0 Z M 2.6875 -6.703125 "/></g></g></g><g fill="#402909" fill-opacity="1"><g transform="translate(170.540451, 285.465128)"><g><path d="M 0.984375 -8.265625 L 2.890625 -8.265625 L 2.890625 0 L 0.984375 0 Z M 0.984375 -8.265625 "/></g></g></g><g fill="#402909" fill-opacity="1"><g transform="translate(181.545598, 285.465128)"><g><path d="M 7.671875 -1.5625 L 7.671875 0 L 0.453125 0 L 0.453125 -1.234375 L 4.984375 -6.703125 L 0.546875 -6.703125 L 0.546875 -8.265625 L 7.484375 -8.265625 L 7.484375 -7.015625 L 2.96875 -1.5625 Z M 7.671875 -1.5625 "/></g></g></g><g fill="#402909" fill-opacity="1"><g transform="translate(196.594378, 285.465128)"><g><path d="M 8.5 0 L 8.484375 -4.953125 L 6.046875 -0.875 L 5.1875 -0.875 L 2.765625 -4.84375 L 2.765625 0 L 0.984375 0 L 0.984375 -8.265625 L 2.5625 -8.265625 L 5.65625 -3.125 L 8.6875 -8.265625 L 10.265625 -8.265625 L 10.28125 0 Z M 8.5 0 "/></g></g></g><g fill="#402909" fill-opacity="1"><g transform="translate(214.991241, 285.465128)"><g><path d="M 0.984375 -8.265625 L 2.890625 -8.265625 L 2.890625 0 L 0.984375 0 Z M 0.984375 -8.265625 "/></g></g></g></svg>